<svg stroke="#121212" aria-hidden="true" focusable="false" viewBox="0 0 27 27" xmlns="http://www.w3.org/2000/svg" xmlns:xlink="http://www.w3.org/1999/xlink" class="svg-iconstyled__Svg-app__sc-1nwmz4s-0 kZgIbN" style="fill: rgb(109, 211, 199); height: 36px; overflow: visible; width: 36px;"><path d="M21.5 21C21.7761 21 22 20.7761 22 20.5L22 2.5C22 2.22386 21.7761 2 21.5 2L8.5 2C8.22386 2 8 2.22386 8 2.5L8 20.5C8 20.7761 8.22386 21 8.5 21L21.5 21Z" fill="white" stroke="#121212" stroke-linecap="round" stroke-linejoin="round"></path><path d="M19.5 23C19.7761 23 20 22.7761 20 22.5L20 4.5C20 4.22386 19.7761 4 19.5 4L6.5 4C6.22386 4 6 4.22386 6 4.5L6 22.5C6 22.7761 6.22386 23 6.5 23L19.5 23Z" fill="white" stroke="#121212" stroke-linecap="round" stroke-linejoin="round"></path><path d="M17.5 25C17.7761 25 18 24.7761 18 24.5L18 6.5C18 6.22386 17.7761 6 17.5 6L4.5 6C4.22386 6 4 6.22386 4 6.5L4 24.5C4 24.7761 4.22386 25 4.5 25L17.5 25Z" fill="white" stroke="#121212" stroke-linecap="round" stroke-linejoin="round"></path><path d="M4 7V12C4.66667 12.8333 6.5 14.5 8.5 14.5C11 14.5 13 12 16 12C16.8 12 17.6667 12.3333 18 12.5V7C18 6.44772 17.5523 6 17 6H5C4.44772 6 4 6.44772 4 7Z" stroke="#121212"></path></svg>