<svg aria-hidden="true" focusable="false" viewBox="0 0 33 29" xmlns="http://www.w3.org/2000/svg" xmlns:xlink="http://www.w3.org/1999/xlink" class="svg-iconstyled__Svg-app__sc-1nwmz4s-0 kZgIbN" style="fill: currentcolor; height: 36px; overflow: visible; width: 36px;"><path d="M7.14659 4.14621C6.95114 4.34175 6.95114 4.6584 7.14659 4.85335C7.34165 5.04888 7.65855 5.04888 7.85341 4.85335C8.04886 4.6584 8.04886 4.34175 7.85341 4.14621C7.65855 3.95126 7.34165 3.95126 7.14659 4.14621Z"></path><path d="M24.1465 4.14621C23.9512 4.34175 23.9512 4.6584 24.1465 4.85335C24.3416 5.04888 24.6585 5.04888 24.8534 4.85335C25.0489 4.6584 25.0489 4.34175 24.8534 4.14621C24.6585 3.95126 24.3416 3.95126 24.1465 4.14621Z"></path><path fill-rule="evenodd" clip-rule="evenodd" d="M26.9646 0.56476L32.4333 6.0141C33.1891 6.76724 33.1888 7.98551 32.433 8.73864L29.4093 11.752C29.9168 13.1704 29.6731 14.7537 28.7723 15.9549L29.2607 16.4414C30.2653 17.4431 30.2653 19.0728 29.261 20.0746C28.7401 20.5932 28.024 20.8661 27.2758 20.8197C27.3226 21.5708 27.0484 22.2791 26.526 22.7994C25.9983 23.3255 25.2747 23.6017 24.5043 23.5435C24.5564 24.2001 24.3701 24.8601 23.9353 25.3689C23.4076 25.9873 22.6281 26.3265 21.8058 26.2726C21.8496 26.9828 21.6006 27.7078 21.0573 28.2492C20.052 29.25 18.4167 29.2503 17.4114 28.2495L16.5 27.3408L15.5888 28.249C14.5833 29.2503 12.9478 29.2503 11.9427 28.2495C11.4241 27.7327 11.1461 27.027 11.1927 26.2713C10.4311 26.318 9.72386 26.0385 9.20773 25.5242C8.68959 25.0071 8.41189 24.3017 8.45872 23.5463C7.68906 23.5937 6.98385 23.3079 6.47351 22.7989C5.95033 22.2776 5.67716 21.5693 5.72424 20.82C4.97598 20.8664 4.26045 20.5939 3.73929 20.0751C2.7317 19.0711 2.73221 17.4446 3.73904 16.4416L4.65019 15.5334C3.93063 14.8164 3.59805 13.7999 3.73929 12.8076L0.566231 9.63729C-0.188072 8.88566 -0.189583 7.66714 0.566734 6.91325L6.03543 1.46391C6.79124 0.710771 8.01409 0.711022 8.76965 1.46391L11.7206 4.41249C13.3045 3.65734 15.1498 3.6596 16.7324 4.41851C17.9633 3.35403 19.6799 3.03542 21.2063 3.57807L24.2303 0.56476C24.9862 -0.188379 26.209 -0.188128 26.9646 0.56476ZM4.6507 17.3498C4.14716 17.8516 4.14766 18.6652 4.6507 19.1667C5.15323 19.6669 5.97123 19.6669 6.47401 19.1664L9.20773 16.4416L9.20798 16.4414L9.20849 16.4409C9.71581 15.9356 9.7075 15.1228 9.20773 14.6248C8.7052 14.124 7.8877 14.1243 7.38517 14.6248L7.38 14.6299L7.37768 14.6322L7.37362 14.6363L7.37059 14.6393L7.36761 14.6423C6.39698 15.6095 5.62322 16.3805 4.6507 17.3498ZM7.38542 21.891C6.88138 21.3887 6.88113 20.5776 7.38517 20.0751L7.3852 20.0749L7.38542 20.0749L10.1191 17.3501C10.6219 16.8496 11.4399 16.8496 11.9427 17.3498C12.4478 17.8531 12.4457 18.6654 11.9427 19.1664L9.20773 21.8912C8.70444 22.3932 7.88921 22.3932 7.38542 21.891ZM10.1191 22.7994C9.61686 23.3014 9.6156 24.113 10.1196 24.6163C10.6229 25.1175 11.4382 25.1185 11.9425 24.616L14.6769 21.8912L14.6772 21.891L14.6774 21.8907C15.1802 21.3887 15.181 20.5774 14.6769 20.0744C14.1749 19.5741 13.3572 19.5739 12.8544 20.0746L12.8541 20.0749L10.1194 22.7992L10.1194 22.7994L10.1191 22.7994ZM14.6774 27.3408C14.1747 27.8413 13.3567 27.8413 12.8541 27.3411C12.3503 26.8391 12.3498 26.027 12.8539 25.5244L12.8541 25.5242L15.5881 22.7997C15.5883 22.7997 15.5886 22.7994 15.5888 22.7992C16.0921 22.2976 16.9079 22.2974 17.4114 22.7992C17.9152 23.3012 17.9155 24.1135 17.4114 24.616L14.6774 27.3408ZM18.3231 27.3411C18.8253 27.8413 19.6433 27.8413 20.1461 27.3408C20.6487 26.8401 20.6487 26.0252 20.1459 25.5242L18.9905 24.3729C18.8752 24.8044 18.6481 25.2001 18.3228 25.5242L17.4117 26.4324L18.3231 27.3411ZM28.3498 19.1664C27.8468 19.6669 27.0288 19.6669 26.5265 19.1667L23.7923 16.4416C23.5407 16.1908 23.1326 16.191 22.8809 16.4414C22.6291 16.6923 22.6291 17.0989 22.8806 17.3498L25.6151 20.0751C26.1176 20.5754 26.1201 21.3877 25.6146 21.8912C25.1128 22.3915 24.2983 22.3955 23.79 21.8887L23.7281 21.8275L21.0575 19.1667C20.8058 18.9158 20.3977 18.9158 20.1459 19.1667C19.8941 19.4173 19.8941 19.824 20.1459 20.0749L22.8126 22.7319C23.3086 23.257 23.3711 24.048 22.9536 24.5365C22.6047 24.9454 22.0518 25.0965 21.5445 24.9213C21.2414 24.8165 21.1523 24.7259 20.4305 23.9922L20.4305 23.9922C20.0053 23.5598 19.3604 22.9043 18.3228 21.891C17.8132 21.3832 17.1085 21.0969 16.3379 21.1444C16.3844 20.3892 16.1067 19.6837 15.5886 19.1667C15.045 18.6248 14.3167 18.3767 13.6036 18.4211C13.6505 17.6714 13.3775 16.9632 12.8539 16.4414C12.31 15.9 11.5819 15.6521 10.8689 15.6965C10.9157 14.9469 10.6428 14.2382 10.1194 13.7166C9.11433 12.7151 7.47883 12.7151 6.47376 13.7166L5.56185 14.6253C5.07518 14.1403 4.88358 13.4268 5.06184 12.763C5.121 12.542 5.05781 12.3059 4.89542 12.1436L3.2861 10.5357L6.47401 7.35906C6.72553 7.10843 6.72553 6.70176 6.47401 6.45088C6.22224 6.2 5.81413 6.2 5.56261 6.45088L2.37595 9.62625L1.47839 8.72961C1.22637 8.47848 1.22637 8.07256 1.47839 7.82143L6.94709 2.37209C7.20037 2.11971 7.60799 2.12272 7.85774 2.37159L11.1454 5.6566C11.3531 5.86407 11.6761 5.90522 11.9296 5.75595C13.0938 5.07054 14.4906 4.95037 15.7369 5.39418L12.3982 8.72133C11.3939 9.72284 11.3939 11.3526 12.3984 12.3546C13.4037 13.3553 15.039 13.3553 16.0445 12.3543L17.4117 10.992C18.6708 9.73689 20.7091 9.73639 21.9687 10.9923L28.3493 17.3496C28.8516 17.8506 28.8516 18.6659 28.3498 19.1664ZM30.1721 9.17517L31.5219 7.83046C31.7741 7.57883 31.7731 7.17291 31.5219 6.92253L26.0532 1.47294C25.8011 1.22181 25.3935 1.22206 25.1418 1.47294L21.8136 4.78956C21.6202 4.98198 21.3262 5.03216 21.0797 4.91475C19.8501 4.3292 18.3759 4.58108 17.4114 5.5422C15.9887 6.96016 14.187 8.75545 13.3098 9.62952C12.8075 10.1303 12.8075 10.9454 13.3098 11.4464C13.8121 11.9466 14.6304 11.9466 15.1331 11.4461L16.5 10.0841C18.2631 8.3262 21.1175 8.3267 22.8804 10.0841L27.8475 15.0332C28.4618 14.1059 28.561 12.9062 28.0678 11.8781C27.95 11.6325 28.0004 11.3395 28.1935 11.1468L29.2607 10.0836L26.0703 6.90522C25.8188 6.65434 25.8188 6.24767 26.0703 5.99679C26.3221 5.74616 26.7302 5.74591 26.9819 5.99679L30.1721 9.17517Z"></path></svg>