<svg aria-hidden="true" focusable="false" viewBox="0 0 25 25" xmlns="http://www.w3.org/2000/svg" xmlns:xlink="http://www.w3.org/1999/xlink" class="svg-iconstyled__Svg-app__sc-1nwmz4s-0 kZgIbN" style="fill: currentcolor; height: 36px; overflow: visible; width: 36px;"><path d="M5.9499 12.4467C5.74723 12.6654 5.69335 12.9834 5.81267 13.2566C5.93199 13.5299 6.20183 13.7065 6.5 13.7065H11.1573L6.26525 22.6398C6.08208 22.9743 6.17909 23.393 6.4907 23.6128C6.80231 23.8327 7.2293 23.7837 7.48302 23.499L18.0599 11.6294C18.2565 11.4088 18.3053 11.0933 18.1844 10.8236C18.0635 10.554 17.7955 10.3804 17.5 10.3804H12.8521L17.3093 2.36448C17.4938 2.0328 17.4014 1.61564 17.0941 1.39285C16.7869 1.17006 16.3617 1.21185 16.1037 1.4902L5.9499 12.4467Z" fill="none" stroke="currentColor" stroke-width="1" stroke-linecap="round" stroke-linejoin="round"></path></svg>